<svg viewBox="-636 -653 1272 1306" width="1272" height="1306" style="background-color: rgb(255, 255, 255);" xmlns="http://www.w3.org/2000/svg"><path d="M-111.66002657532609,15.637611723256203L-166.37365361384352,12.84936439507585M-166.37365361384352,-51.93564680740194L-166.37365361384352,12.84936439507585M-166.37365361384352,12.84936439507585L-177.32072484384688,33.95906785041405M-111.66002657532609,-49.147399479221576L-111.66002657532609,15.637611723256203M-111.66002657532609,15.637611723256203L-122.60709780532942,36.74731517859441" style="fill:none;stroke:rgb(0,0,0);stroke-width:1;stroke-linecap:round"></path><path d="M-111.6600265753261,15.637611723256205L-166.37365361384352,12.849364395075849L-166.37365361384352,-51.93564680740194z" style="fill:rgb(238,238,238); fill-opacity: 0.27"></path><path d="M-112.62422840599017,-8.26850030461236L-167.33785544450757,-11.056747632792717M-167.33785544450757,-20.79268660455565L-167.33785544450757,-11.056747632792717M-167.33785544450757,-11.056747632792717L-168.98298933329787,-7.884365923837706M-112.62422840599017,-18.004439276375294L-167.33785544450757,-20.79268660455565M-167.33785544450757,-20.79268660455565L-168.98298933329787,-17.62030489560064" style="fill:none;stroke:rgb(0,0,0);stroke-width:1;stroke-linecap:round"></path><path d="M-112.62422840599017,-8.26850030461236L-167.33785544450757,-11.056747632792717L-167.33785544450757,-20.792686604555655zM-167.33785544450757,-20.792686604555655L-167.33785544450757,-11.056747632792717L-168.98298933329787,-17.620304895600643z" style="fill:rgb(153,221,255); fill-opacity: 0.4"></path><path d="M-111.6600265753261,-49.147399479221576L-111.6600265753261,15.637611723256205L-166.37365361384352,-51.93564680740194z" style="fill:rgb(238,238,238); fill-opacity: 0.27"></path><path d="M-168.98298933329787,-7.884365923837707L-167.33785544450757,-11.056747632792717L-112.62422840599017,-8.26850030461236z" style="fill:rgb(153,221,255); fill-opacity: 0.4"></path><path d="M-111.66002657532609,-49.147399479221576L-166.37365361384352,-51.93564680740194M-166.37365361384352,-51.93564680740194L-177.32072484384688,-30.82594335206372" style="fill:none;stroke:rgb(0,0,0);stroke-width:1;stroke-linecap:round"></path><path d="M-167.33785544450757,-11.056747632792717L-168.98298933329787,-7.884365923837707L-168.98298933329787,-17.620304895600643zM-112.62422840599017,-18.004439276375294L-112.62422840599017,-8.26850030461236L-167.33785544450757,-20.792686604555655z" style="fill:rgb(153,221,255); fill-opacity: 0.4"></path><path d="M-112.6242253116037,-18.00443950032052L-112.6242253116037,-8.268500528557585M-112.6242253116037,-8.268500528557585L-114.26935920039396,-5.096118819602577M-112.6242253116037,-8.268500528557585L-79.80426695401738,-8.686567170461316M-112.62422840599017,-18.004439276375294L-112.62422840599017,-8.26850030461236M-112.62422840599017,-8.26850030461236L-114.26936229478045,-5.096118595657349M-5.436786605876697,16.576989399667696L-78.38828675028084,12.859326426580772M-78.38828675028086,-38.481581041603164L-78.38828675028084,12.859326426580772M-78.38828675028084,12.859326426580772L-87.06363557920449,29.588370871661777M-168.98298933329787,-17.62030489560064L-168.98298933329787,-7.884365923837706M-168.98298933329787,-7.884365923837706L-114.26936229478045,-5.096118595657349" style="fill:none;stroke:rgb(0,0,0);stroke-width:1;stroke-linecap:round"></path><path d="M-177.32072484384688,33.95906785041405L-166.37365361384352,12.849364395075849L-111.6600265753261,15.637611723256205z" style="fill:rgb(238,238,238); fill-opacity: 0.27"></path><path d="M-112.6242253116037,-18.00443950032052L-114.26935920039396,-14.83205779136551M-112.6242253116037,-18.00443950032052L-79.80426695401738,-8.686567170461316M-112.62422840599017,-18.004439276375294L-114.26936229478045,-14.832057567420284" style="fill:none;stroke:rgb(0,0,0);stroke-width:1;stroke-linecap:round"></path><path d="M-114.26936229478045,-5.096118595657351L-168.98298933329787,-7.884365923837707L-112.62422840599017,-8.26850030461236zM-114.26936229478045,-14.832057567420286L-112.62422840599017,-18.004439276375294L-167.33785544450757,-20.792686604555655zM-168.98298933329787,-17.620304895600643L-114.26936229478045,-14.832057567420286L-167.33785544450757,-20.792686604555655zM-114.26936229478045,-5.096118595657351L-112.62422840599017,-8.26850030461236L-112.62422840599017,-18.004439276375294z" style="fill:rgb(153,221,255); fill-opacity: 0.4"></path><path d="M-112.6242279986086,-18.004439255614827L-112.6242279986086,-8.26850028385189L-114.26936188739889,-5.096118574896883z" style="fill:rgb(255,187,187); fill-opacity: 0.4"></path><path d="M-168.98298933329787,-17.62030489560064L-114.26936229478045,-14.832057567420284" style="fill:none;stroke:rgb(0,0,0);stroke-width:1;stroke-linecap:round"></path><path d="M-168.98298933329787,-17.620304895600643L-168.98298933329787,-7.884365923837707L-114.26936229478045,-14.832057567420286z" style="fill:rgb(153,221,255); fill-opacity: 0.4"></path><path d="M-112.6242279986086,-8.26850028385189L-112.6242279986086,-18.004439255614827L-79.80426939962209,-8.68656751588696z" style="fill:rgb(255,187,187); fill-opacity: 0.4"></path><path d="M-111.66002657532609,-49.147399479221576L-122.60709780532942,-28.037696023883374" style="fill:none;stroke:rgb(0,0,0);stroke-width:1;stroke-linecap:round"></path><path d="M-168.98298933329787,-7.884365923837707L-114.26936229478045,-5.096118595657351L-114.26936229478045,-14.832057567420286zM-114.26936229478045,-14.832057567420286L-114.26936229478045,-5.096118595657351L-112.62422840599017,-18.004439276375294z" style="fill:rgb(153,221,255); fill-opacity: 0.4"></path><path d="M-112.6242279986086,-18.004439255614827L-114.26936188739889,-5.096118574896883L-114.26936188739889,-14.832057546659815zM-114.26936188739889,-5.096118574896883L-112.6242279986086,-8.26850028385189L-79.80426939962209,-8.68656751588696z" style="fill:rgb(255,187,187); fill-opacity: 0.4"></path><path d="M-5.436786605876694,16.576989399667696L-78.38828675028086,12.859326426580772L-78.38828675028086,-38.481581041603164z" style="fill:rgb(238,238,238); fill-opacity: 0.27"></path><path d="M-114.26935920039396,-5.096118819602577L-114.26935920039396,-14.83205779136551M-114.26935920039396,-5.096118819602577L-79.80426695401738,-8.686567170461316M-114.26936229478045,-14.832057567420284L-114.26936229478045,-5.096118595657349" style="fill:none;stroke:rgb(0,0,0);stroke-width:1;stroke-linecap:round"></path><path d="M-112.6242279986086,-18.004439255614827L-114.26936188739889,-14.832057546659815L-79.80426939962209,-8.68656751588696z" style="fill:rgb(255,187,187); fill-opacity: 0.4"></path><path d="M-5.436786605876697,-34.76391806851624L-5.436786605876697,16.576989399667696M-5.436786605876697,16.576989399667696L-14.112135434800336,33.3060338447487M-114.26935920039396,-14.83205779136551L-79.80426695401738,-8.686567170461316" style="fill:none;stroke:rgb(0,0,0);stroke-width:1;stroke-linecap:round"></path><path d="M-114.26936188739889,-14.832057546659815L-114.26936188739889,-5.096118574896883L-79.80426939962209,-8.68656751588696z" style="fill:rgb(255,187,187); fill-opacity: 0.4"></path><path d="M-166.37365361384352,-51.93564680740194L-166.37365361384352,12.849364395075849L-177.32072484384688,-30.825943352063728zM-122.60709780532945,36.747315178594405L-111.6600265753261,15.637611723256205L-111.6600265753261,-49.147399479221576z" style="fill:rgb(238,238,238); fill-opacity: 0.27"></path><path d="M-5.436786605876697,-34.76391806851624L-78.38828675028086,-38.481581041603164M-78.38828675028086,-38.481581041603164L-87.06363557920449,-21.75253659652216" style="fill:none;stroke:rgb(0,0,0);stroke-width:1;stroke-linecap:round"></path><path d="M-5.436786605876697,-34.76391806851624L-5.436786605876694,16.576989399667696L-78.38828675028086,-38.481581041603164zM-87.06363557920449,29.588370871661773L-78.38828675028086,12.859326426580772L-5.436786605876694,16.576989399667696z" style="fill:rgb(238,238,238); fill-opacity: 0.27"></path><path d="M91.84145325214764,17.745603338732483L28.00888773047254,14.492648089733677M28.00888773047254,-25.462855266980053L28.00888773047254,14.492648089733677M28.00888773047254,14.492648089733677L21.25739177240972,27.511845148030073" style="fill:none;stroke:rgb(0,0,0);stroke-width:1;stroke-linecap:round"></path><path d="M-122.60709780532945,36.747315178594405L-177.32072484384688,33.95906785041405L-111.6600265753261,15.637611723256205zM-122.60709780532945,-28.037696023883374L-111.6600265753261,-49.147399479221576L-166.37365361384352,-51.93564680740194zM-166.37365361384352,12.849364395075849L-177.32072484384688,33.95906785041405L-177.32072484384688,-30.825943352063728zM-78.38828675028086,-38.481581041603164L-78.38828675028086,12.859326426580772L-87.06363557920449,-21.752536596522162z" style="fill:rgb(238,238,238); fill-opacity: 0.27"></path><path d="M-5.436786605876697,-34.76391806851624L-14.112135434800342,-18.03487362343523" style="fill:none;stroke:rgb(0,0,0);stroke-width:1;stroke-linecap:round"></path><path d="M91.84145325214766,17.745603338732483L28.008887730472548,14.492648089733677L28.008887730472548,-25.462855266980057zM-14.112135434800335,33.3060338447487L-5.436786605876694,16.576989399667696L-5.436786605876697,-34.76391806851624z" style="fill:rgb(238,238,238); fill-opacity: 0.27"></path><path d="M91.84145325214764,-22.20990001798125L91.84145325214764,17.745603338732483M91.84145325214764,17.745603338732483L85.08995729408481,30.76480039702887M91.84145325214764,-22.20990001798125L28.00888773047254,-25.462855266980053M28.00888773047254,-25.462855266980053L21.25739177240972,-12.443658208683667M180.96267963984135,22.287287646824684L126.2490526013239,19.499040318644326M126.2490526013239,-20.456463038069405L126.2490526013239,19.499040318644326M126.2490526013239,19.499040318644326L119.49755664326106,32.51823737694072" style="fill:none;stroke:rgb(0,0,0);stroke-width:1;stroke-linecap:round"></path><path d="M-78.38828675028086,12.859326426580772L-87.06363557920449,29.588370871661773L-87.06363557920449,-21.752536596522162zM91.84145325214766,-22.209900017981255L91.84145325214766,17.745603338732483L28.008887730472548,-25.462855266980057zM21.257391772409726,27.51184514803007L28.008887730472548,14.492648089733677L91.84145325214766,17.745603338732483z" style="fill:rgb(238,238,238); fill-opacity: 0.27"></path><path d="M-11.352375855627475,8.174898282099624L-84.30387600003164,4.4572353090127015M-84.30387600003164,-5.2787036627502335L-84.30387600003164,4.4572353090127015M-84.30387600003164,4.4572353090127015L-85.94900988882192,7.629617017967712" style="fill:none;stroke:rgb(0,0,0);stroke-width:1;stroke-linecap:round"></path><path d="M-14.112135434800335,33.3060338447487L-87.06363557920449,29.588370871661773L-5.436786605876694,16.576989399667696z" style="fill:rgb(238,238,238); fill-opacity: 0.27"></path><path d="M-177.32072484384688,-30.82594335206372L-177.32072484384688,33.95906785041405M-177.32072484384688,33.95906785041405L-122.60709780532942,36.74731517859441" style="fill:none;stroke:rgb(0,0,0);stroke-width:1;stroke-linecap:round"></path><path d="M-14.112135434800336,-18.03487362343523L-5.436786605876697,-34.76391806851624L-78.38828675028086,-38.481581041603164zM-122.60709780532945,-28.037696023883374L-122.60709780532945,36.747315178594405L-111.6600265753261,-49.147399479221576zM-177.32072484384688,-30.825943352063728L-122.60709780532945,-28.037696023883374L-166.37365361384352,-51.93564680740194z" style="fill:rgb(238,238,238); fill-opacity: 0.27"></path><path d="M-11.352375855627475,-1.5610406896633082L-84.30387600003164,-5.2787036627502335M-84.30387600003164,-5.2787036627502335L-85.94900988882192,-2.1063219537952214" style="fill:none;stroke:rgb(0,0,0);stroke-width:1;stroke-linecap:round"></path><path d="M-11.352375855627473,8.174898282099626L-84.30387600003162,4.4572353090127015L-84.30387600003162,-5.278703662750233z" style="fill:rgb(153,221,255); fill-opacity: 0.4"></path><path d="M28.008887730472548,-25.462855266980057L28.008887730472548,14.492648089733677L21.257391772409726,-12.443658208683667z" style="fill:rgb(238,238,238); fill-opacity: 0.27"></path><path d="M-84.30387600003162,-5.278703662750233L-84.30387600003162,4.4572353090127015L-85.94900988882192,-2.1063219537952236z" style="fill:rgb(153,221,255); fill-opacity: 0.4"></path><path d="M180.96267963984135,22.287287646824684L126.2490526013239,19.499040318644326L126.2490526013239,-20.45646303806941z" style="fill:rgb(238,238,238); fill-opacity: 0.27"></path><path d="M91.84145325214764,-22.20990001798125L85.08995729408481,-9.19070295968486M180.96267963984135,-17.66821570988905L180.96267963984135,22.287287646824684M180.96267963984135,22.287287646824684L174.21118368177852,35.30648470512107" style="fill:none;stroke:rgb(0,0,0);stroke-width:1;stroke-linecap:round"></path><path d="M-85.94900988882192,7.629617017967712L-84.30387600003162,4.4572353090127015L-11.352375855627473,8.174898282099626zM-84.30387600003162,4.4572353090127015L-85.94900988882192,7.629617017967712L-85.94900988882192,-2.1063219537952236z" style="fill:rgb(153,221,255); fill-opacity: 0.4"></path><path d="M-122.60709780532942,-28.037696023883374L-122.60709780532942,36.74731517859441M-87.06363557920449,-21.75253659652216L-87.06363557920449,29.588370871661777M-87.06363557920449,29.588370871661777L-14.112135434800336,33.3060338447487M-85.94900988882192,-2.1063219537952214L-85.94900988882192,7.629617017967712M-85.94900988882192,7.629617017967712L-12.997509744417762,11.347279991054636" style="fill:none;stroke:rgb(0,0,0);stroke-width:1;stroke-linecap:round"></path><path d="M-11.352375855627475,-1.5610406896633082L-11.352375855627473,8.174898282099626L-84.30387600003162,-5.278703662750233z" style="fill:rgb(153,221,255); fill-opacity: 0.4"></path><path d="M85.08995729408483,30.764800397028868L91.84145325214766,17.745603338732483L91.84145325214766,-22.209900017981255z" style="fill:rgb(238,238,238); fill-opacity: 0.27"></path><path d="M-11.352375855627475,-1.5610406896633082L-11.352375855627475,8.174898282099624M-11.352375855627475,8.174898282099624L-12.997509744417762,11.347279991054636M-11.352374183290637,-1.5610405994238805L-11.352374183290637,8.174898604461927M-11.352374183290637,8.174898604461927L-12.997507915188729,11.347280010875043M-11.352374183290637,8.174898604461927L22.764991485409528,5.3998036095094495M180.96267963984135,-17.66821570988905L126.2490526013239,-20.456463038069405M126.2490526013239,-20.456463038069405L119.49755664326106,-7.437265979773018M260.96496805198825,26.36426405996667L215.3702794966285,24.040724652604755M215.3702794966285,-15.914778704108977L215.3702794966285,24.040724652604755M215.3702794966285,24.040724652604755L208.61878353856568,37.05992171090114" style="fill:none;stroke:rgb(0,0,0);stroke-width:1;stroke-linecap:round"></path><path d="M180.96267963984135,-17.66821570988905L180.96267963984135,22.287287646824684L126.2490526013239,-20.45646303806941z" style="fill:rgb(238,238,238); fill-opacity: 0.27"></path><path d="M-85.94900988882192,-2.1063219537952214L-12.997509744417762,1.6113410192917024" style="fill:none;stroke:rgb(0,0,0);stroke-width:1;stroke-linecap:round"></path><path d="M-177.32072484384688,33.95906785041405L-122.60709780532945,36.747315178594405L-122.60709780532945,-28.037696023883374z" style="fill:rgb(238,238,238); fill-opacity: 0.27"></path><path d="M-85.94900988882192,-2.1063219537952236L-12.99750974441776,1.6113410192917008L-84.30387600003162,-5.278703662750233z" style="fill:rgb(153,221,255); fill-opacity: 0.4"></path><path d="M-87.06363557920449,-21.752536596522162L-14.112135434800336,-18.03487362343523L-78.38828675028086,-38.481581041603164zM28.008887730472548,14.492648089733677L21.257391772409726,27.51184514803007L21.257391772409726,-12.443658208683667z" style="fill:rgb(238,238,238); fill-opacity: 0.27"></path><path d="M-12.99750974441776,11.347279991054636L-85.94900988882192,7.629617017967712L-11.352375855627473,8.174898282099626zM-12.99750974441776,1.6113410192917008L-11.352375855627475,-1.5610406896633082L-84.30387600003162,-5.278703662750233z" style="fill:rgb(153,221,255); fill-opacity: 0.4"></path><path d="M119.49755664326106,32.51823737694071L126.2490526013239,19.499040318644326L180.96267963984135,22.287287646824684z" style="fill:rgb(238,238,238); fill-opacity: 0.27"></path><path d="M-11.352375855627475,-1.5610406896633082L-12.997509744417762,1.6113410192917024M-11.352374183290637,-1.5610405994238805L-12.997507915188729,1.6113408069892337M-11.352374183290637,-1.5610405994238805L22.764991485409528,5.3998036095094495M87.74942193613656,1.0250885637049802L23.916856414461453,-2.227866685293824M23.916856414461453,-8.069430068351584L23.916856414461453,-2.227866685293824M23.916856414461453,-2.227866685293824L22.929776081187285,-0.3244376599208185" style="fill:none;stroke:rgb(0,0,0);stroke-width:1;stroke-linecap:round"></path><path d="M-11.352374025642527,8.174898375357028L-11.35237402564253,-1.5610405964059078L22.764990642463804,5.399803630249417z" style="fill:rgb(255,187,187); fill-opacity: 0.4"></path><path d="M-14.112135434800336,-18.03487362343523L-14.112135434800335,33.3060338447487L-5.436786605876697,-34.76391806851624z" style="fill:rgb(238,238,238); fill-opacity: 0.27"></path><path d="M-85.94900988882192,-2.1063219537952236L-85.94900988882192,7.629617017967712L-12.99750974441776,1.6113410192917008zM-12.99750974441776,11.347279991054636L-11.352375855627473,8.174898282099626L-11.352375855627475,-1.5610406896633082z" style="fill:rgb(153,221,255); fill-opacity: 0.4"></path><path d="M-11.35237402564253,-1.5610405964059078L-11.352374025642527,8.174898375357028L-12.997507914432815,11.347280084312038z" style="fill:rgb(255,187,187); fill-opacity: 0.4"></path><path d="M85.08995729408483,30.764800397028868L21.257391772409726,27.51184514803007L91.84145325214766,17.745603338732483zM85.08995729408483,-9.19070295968486L91.84145325214766,-22.209900017981255L28.008887730472548,-25.462855266980057z" style="fill:rgb(238,238,238); fill-opacity: 0.27"></path><path d="M87.74942193613656,-4.81647481935278L23.916856414461453,-8.069430068351584M23.916856414461453,-8.069430068351584L22.929776081187285,-6.1660010429785785M178.50493175980452,12.82460288648462L123.7913047212871,10.03635555830426M123.7913047212871,4.1947921752465005L123.7913047212871,10.03635555830426M123.7913047212871,10.03635555830426L122.80422438801293,11.939784583677266" style="fill:none;stroke:rgb(0,0,0);stroke-width:1;stroke-linecap:round"></path><path d="M-177.32072484384688,-30.825943352063728L-177.32072484384688,33.95906785041405L-122.60709780532945,-28.037696023883374z" style="fill:rgb(238,238,238); fill-opacity: 0.27"></path><path d="M-12.997507914432815,11.347280084312038L-11.352374025642527,8.174898375357028L22.764990642463804,5.399803630249417z" style="fill:rgb(255,187,187); fill-opacity: 0.4"></path><path d="M-85.94900988882192,7.629617017967712L-12.99750974441776,11.347279991054636L-12.99750974441776,1.6113410192917008zM23.91685641446146,-8.069430068351584L23.91685641446146,-2.2278666852938236L22.929776081187295,-6.166001042978579z" style="fill:rgb(153,221,255); fill-opacity: 0.4"></path><path d="M260.9649680519882,26.364264059966665L215.3702794966285,24.040724652604755L215.3702794966285,-15.914778704108976z" style="fill:rgb(238,238,238); fill-opacity: 0.27"></path><path d="M87.74942193613657,1.0250885637049814L23.91685641446146,-2.2278666852938236L23.91685641446146,-8.069430068351584z" style="fill:rgb(153,221,255); fill-opacity: 0.4"></path><path d="M260.96496805198825,-13.591239296747066L260.96496805198825,26.36426405996667M260.96496805198825,26.36426405996667L254.21347209392542,39.38346111826306M178.50493175980452,6.983039503426858L123.7913047212871,4.1947921752465005M123.7913047212871,4.1947921752465005L122.80422438801293,6.0982212006195065" style="fill:none;stroke:rgb(0,0,0);stroke-width:1;stroke-linecap:round"></path><path d="M23.91685641446146,-2.2278666852938236L22.929776081187295,-0.32443765992081824L22.929776081187295,-6.166001042978579z" style="fill:rgb(153,221,255); fill-opacity: 0.4"></path><path d="M-11.35237402564253,-1.5610405964059078L-12.997507914432815,1.6113411125491013L22.764990642463804,5.399803630249417z" style="fill:rgb(255,187,187); fill-opacity: 0.4"></path><path d="M180.96267963984135,-17.66821570988905L174.21118368177852,-4.64901865159266" style="fill:none;stroke:rgb(0,0,0);stroke-width:1;stroke-linecap:round"></path><path d="M-12.99750974441776,1.6113410192917008L-12.99750974441776,11.347279991054636L-11.352375855627475,-1.5610406896633082z" style="fill:rgb(153,221,255); fill-opacity: 0.4"></path><path d="M-11.35237402564253,-1.5610405964059078L-12.997507914432815,11.347280084312038L-12.997507914432815,1.6113411125491013z" style="fill:rgb(255,187,187); fill-opacity: 0.4"></path><path d="M-12.997507915188729,11.347280010875043L22.764991485409528,5.3998036095094495M-12.997507915188729,1.6113408069892337L22.764991485409528,5.3998036095094495" style="fill:none;stroke:rgb(0,0,0);stroke-width:1;stroke-linecap:round"></path><path d="M126.2490526013239,-20.45646303806941L126.2490526013239,19.499040318644326L119.49755664326106,-7.437265979773018z" style="fill:rgb(238,238,238); fill-opacity: 0.27"></path><path d="M22.929776081187295,-0.32443765992081824L23.91685641446146,-2.2278666852938236L87.74942193613657,1.0250885637049814zM123.79130472128708,4.1947921752465L123.79130472128708,10.03635555830426L122.80422438801291,6.0982212006195065zM178.50493175980452,12.82460288648462L123.79130472128708,10.03635555830426L123.79130472128708,4.1947921752465z" style="fill:rgb(153,221,255); fill-opacity: 0.4"></path><path d="M22.929776081187285,-6.1660010429785785L22.929776081187285,-0.3244376599208185M22.929776081187285,-0.3244376599208185L86.76234160286238,2.928517589077986M-14.112135434800342,-18.03487362343523L-14.112135434800336,33.3060338447487M-12.997507915188729,11.347280010875043L-12.997507915188729,1.6113408069892337M-12.997509744417762,1.6113410192917024L-12.997509744417762,11.347279991054636M-177.32072484384688,-30.82594335206372L-122.60709780532942,-28.037696023883374" style="fill:none;stroke:rgb(0,0,0);stroke-width:1;stroke-linecap:round"></path><path d="M-12.997507914432815,1.6113411125491013L-12.997507914432815,11.347280084312038L22.764990642463804,5.399803630249417z" style="fill:rgb(255,187,187); fill-opacity: 0.4"></path><path d="M123.79130472128708,10.03635555830426L122.80422438801291,11.939784583677266L122.80422438801291,6.0982212006195065zM122.80422438801291,11.939784583677266L123.79130472128708,10.03635555830426L178.50493175980452,12.82460288648462z" style="fill:rgb(153,221,255); fill-opacity: 0.4"></path><path d="M21.25739177240972,-12.443658208683667L21.25739177240972,27.511845148030073M21.25739177240972,27.511845148030073L85.08995729408481,30.76480039702887M22.929776081187285,-6.1660010429785785L86.76234160286238,-2.9130457939797743" style="fill:none;stroke:rgb(0,0,0);stroke-width:1;stroke-linecap:round"></path><path d="M-87.06363557920449,29.588370871661773L-14.112135434800335,33.3060338447487L-14.112135434800336,-18.03487362343523z" style="fill:rgb(238,238,238); fill-opacity: 0.27"></path><path d="M87.74942193613657,-4.816474819352781L87.74942193613657,1.0250885637049814L23.91685641446146,-8.069430068351584z" style="fill:rgb(153,221,255); fill-opacity: 0.4"></path><path d="M122.80422438801293,6.0982212006195065L122.80422438801293,11.939784583677266M122.80422438801293,11.939784583677266L177.51785142653037,14.728031911857626" style="fill:none;stroke:rgb(0,0,0);stroke-width:1;stroke-linecap:round"></path><path d="M22.929776081187295,-6.166001042978579L86.7623416028624,-2.9130457939797756L23.91685641446146,-8.069430068351584zM178.50493175980452,6.983039503426858L178.50493175980452,12.82460288648462L123.79130472128708,4.1947921752465z" style="fill:rgb(153,221,255); fill-opacity: 0.4"></path><path d="M174.21118368177852,35.30648470512107L180.96267963984135,22.287287646824684L180.96267963984135,-17.66821570988905zM-87.06363557920449,-21.752536596522162L-87.06363557920449,29.588370871661773L-14.112135434800336,-18.03487362343523z" style="fill:rgb(238,238,238); fill-opacity: 0.27"></path><path d="M87.74942069319516,-4.8164751826893974L87.74942069319516,1.0250886646141106M87.74942069319516,1.0250886646141106L86.76234035992098,2.9285176899871166M87.74942069319516,1.0250886646141106L121.66347931477667,0.809458437096754M87.74942193613656,-4.81647481935278L87.74942193613656,1.0250885637049802M87.74942193613656,1.0250885637049802L86.76234160286238,2.928517589077986M122.80422438801293,6.0982212006195065L177.51785142653037,8.886468528799863M260.96496805198825,-13.591239296747066L215.3702794966285,-15.914778704108977M215.3702794966285,-15.914778704108977L208.61878353856568,-2.895581645812587" style="fill:none;stroke:rgb(0,0,0);stroke-width:1;stroke-linecap:round"></path><path d="M22.929776081187295,-6.166001042978579L22.929776081187295,-0.32443765992081824L86.7623416028624,-2.9130457939797756z" style="fill:rgb(153,221,255); fill-opacity: 0.4"></path><path d="M260.9649680519882,-13.591239296747068L260.9649680519882,26.364264059966665L215.3702794966285,-15.914778704108976z" style="fill:rgb(238,238,238); fill-opacity: 0.27"></path><path d="M86.7623416028624,2.9285175890779866L22.929776081187295,-0.32443765992081824L87.74942193613657,1.0250885637049814zM86.7623416028624,-2.9130457939797756L87.74942193613657,-4.816474819352781L23.91685641446146,-8.069430068351584z" style="fill:rgb(153,221,255); fill-opacity: 0.4"></path><path d="M178.50493175980452,6.983039503426858L178.50493175980452,12.82460288648462M178.50493175980452,12.82460288648462L177.51785142653037,14.728031911857626M178.50493376192745,6.983039656032687L178.50493376192745,12.824602894013651M178.50493376192745,12.824602894013651L177.51785345316767,14.728031872114485M178.50493376192745,12.824602894013651L212.41899242273203,12.608972822983697" style="fill:none;stroke:rgb(0,0,0);stroke-width:1;stroke-linecap:round"></path><path d="M21.257391772409726,-12.443658208683667L85.08995729408483,-9.19070295968486L28.008887730472548,-25.462855266980057z" style="fill:rgb(238,238,238); fill-opacity: 0.27"></path><path d="M122.80422438801291,6.0982212006195065L177.51785142653034,8.886468528799863L123.79130472128708,4.1947921752465z" style="fill:rgb(153,221,255); fill-opacity: 0.4"></path><path d="M-87.06363557920449,-21.75253659652216L-14.112135434800342,-18.03487362343523" style="fill:none;stroke:rgb(0,0,0);stroke-width:1;stroke-linecap:round"></path><path d="M177.51785142653034,14.728031911857626L122.80422438801291,11.939784583677266L178.50493175980452,12.82460288648462zM177.51785142653034,8.886468528799863L178.50493175980452,6.983039503426858L123.79130472128708,4.1947921752465z" style="fill:rgb(153,221,255); fill-opacity: 0.4"></path><path d="M87.74942069319516,-4.8164751826893974L86.76234035992098,-2.9130461573163915M87.74942069319516,-4.8164751826893974L121.66347931477667,0.809458437096754M87.74942193613656,-4.81647481935278L86.76234160286238,-2.9130457939797743" style="fill:none;stroke:rgb(0,0,0);stroke-width:1;stroke-linecap:round"></path><path d="M122.80422438801291,6.0982212006195065L122.80422438801291,11.939784583677266L177.51785142653034,8.886468528799863z" style="fill:rgb(153,221,255); fill-opacity: 0.4"></path><path d="M208.61878353856568,37.05992171090114L215.3702794966285,24.040724652604755L260.9649680519882,26.364264059966665z" style="fill:rgb(238,238,238); fill-opacity: 0.27"></path><path d="M86.7623416028624,2.9285175890779866L87.74942193613657,1.0250885637049814L87.74942193613657,-4.816474819352781z" style="fill:rgb(153,221,255); fill-opacity: 0.4"></path><path d="M87.74942208971267,-4.816474811526429L87.74942208971267,1.025088571531334L86.76234175643849,2.9285175969043395z" style="fill:rgb(255,187,187); fill-opacity: 0.4"></path><path d="M178.50493175980452,6.983039503426858L177.51785142653037,8.886468528799863M178.50493376192745,6.983039656032687L177.51785345316767,8.886468634133522M178.50493376192745,6.983039656032687L212.41899242273203,12.608972822983697" style="fill:none;stroke:rgb(0,0,0);stroke-width:1;stroke-linecap:round"></path><path d="M85.08995729408483,-9.19070295968486L85.08995729408483,30.764800397028868L91.84145325214766,-22.209900017981255z" style="fill:rgb(238,238,238); fill-opacity: 0.27"></path><path d="M22.929776081187295,-0.32443765992081824L86.7623416028624,2.9285175890779866L86.7623416028624,-2.9130457939797756zM177.51785142653034,14.728031911857626L178.50493175980452,12.82460288648462L178.50493175980452,6.983039503426858z" style="fill:rgb(153,221,255); fill-opacity: 0.4"></path><path d="M178.50493216718607,6.983039524187326L178.50493216718607,12.824602907245087L177.5178518339119,14.728031932618093zM87.74942208971267,1.025088571531334L87.74942208971267,-4.816474811526429L121.66348071129417,0.8094583440139763z" style="fill:rgb(255,187,187); fill-opacity: 0.4"></path><path d="M126.2490526013239,19.499040318644326L119.49755664326106,32.51823737694071L119.49755664326106,-7.437265979773018z" style="fill:rgb(238,238,238); fill-opacity: 0.27"></path><path d="M122.80422438801291,11.939784583677266L177.51785142653034,14.728031911857626L177.51785142653034,8.886468528799863z" style="fill:rgb(153,221,255); fill-opacity: 0.4"></path><path d="M178.50493216718607,12.824602907245087L178.50493216718607,6.983039524187326L212.41899078876762,12.608972679727732zM86.76234175643849,2.9285175969043395L87.74942208971267,1.025088571531334L121.66348071129417,0.8094583440139763z" style="fill:rgb(255,187,187); fill-opacity: 0.4"></path><path d="M86.7623416028624,-2.9130457939797756L86.7623416028624,2.9285175890779866L87.74942193613657,-4.816474819352781z" style="fill:rgb(153,221,255); fill-opacity: 0.4"></path><path d="M87.74942208971267,-4.816474811526429L86.76234175643849,2.9285175969043395L86.76234175643849,-2.9130457861534227z" style="fill:rgb(255,187,187); fill-opacity: 0.4"></path><path d="M174.21118368177852,35.30648470512107L119.49755664326106,32.51823737694071L180.96267963984135,22.287287646824684zM174.21118368177852,-4.649018651592661L180.96267963984135,-17.66821570988905L126.2490526013239,-20.45646303806941z" style="fill:rgb(238,238,238); fill-opacity: 0.27"></path><path d="M309.74403789000996,61.999665374433L298.52072958157413,61.42771719446111M298.52072958157413,-35.07495713530031L298.52072958157413,61.42771719446111M298.52072958157413,61.42771719446111L296.69621770990693,64.94600110368414" style="fill:none;stroke:rgb(0,0,0);stroke-width:1;stroke-linecap:round"></path><path d="M177.5178518339119,14.728031932618093L178.50493216718607,12.824602907245087L212.41899078876762,12.608972679727732z" style="fill:rgb(255,187,187); fill-opacity: 0.4"></path><path d="M86.76234035992098,2.9285176899871166L86.76234035992098,-2.9130461573163915M86.76234035992098,2.9285176899871166L121.66347931477667,0.809458437096754M86.76234160286238,-2.9130457939797743L86.76234160286238,2.928517589077986" style="fill:none;stroke:rgb(0,0,0);stroke-width:1;stroke-linecap:round"></path><path d="M177.51785142653034,8.886468528799863L177.51785142653034,14.728031911857626L178.50493175980452,6.983039503426858z" style="fill:rgb(153,221,255); fill-opacity: 0.4"></path><path d="M178.50493216718607,6.983039524187326L177.5178518339119,14.728031932618093L177.5178518339119,8.886468549560332zM87.74942208971267,-4.816474811526429L86.76234175643849,-2.9130457861534227L121.66348071129417,0.8094583440139763z" style="fill:rgb(255,187,187); fill-opacity: 0.4"></path><path d="M177.51785142653037,8.886468528799863L177.51785142653037,14.728031911857626M177.51785345316767,14.728031872114485L177.51785345316767,8.886468634133522M177.51785345316767,14.728031872114485L212.41899242273203,12.608972822983697" style="fill:none;stroke:rgb(0,0,0);stroke-width:1;stroke-linecap:round"></path><path d="M178.50493216718607,6.983039524187326L177.5178518339119,8.886468549560332L212.41899078876762,12.608972679727732z" style="fill:rgb(255,187,187); fill-opacity: 0.4"></path><path d="M309.74403789000996,-34.50300895532842L309.74403789000996,61.999665374433M309.74403789000996,61.999665374433L307.9195260183427,65.51794928365602M260.96496805198825,-13.591239296747066L254.21347209392542,-0.5720422384506778M85.08995729408481,-9.19070295968486L85.08995729408481,30.76480039702887" style="fill:none;stroke:rgb(0,0,0);stroke-width:1;stroke-linecap:round"></path><path d="M86.76234175643849,-2.9130457861534227L86.76234175643849,2.9285175969043395L121.66348071129417,0.8094583440139763z" style="fill:rgb(255,187,187); fill-opacity: 0.4"></path><path d="M86.76234035992098,-2.9130461573163915L121.66347931477667,0.809458437096754" style="fill:none;stroke:rgb(0,0,0);stroke-width:1;stroke-linecap:round"></path><path d="M177.5178518339119,8.886468549560332L177.5178518339119,14.728031932618093L212.41899078876762,12.608972679727732z" style="fill:rgb(255,187,187); fill-opacity: 0.4"></path><path d="M177.51785345316767,8.886468634133522L212.41899242273203,12.608972822983697" style="fill:none;stroke:rgb(0,0,0);stroke-width:1;stroke-linecap:round"></path><path d="M21.257391772409726,27.51184514803007L85.08995729408483,30.764800397028868L85.08995729408483,-9.19070295968486zM215.3702794966285,-15.914778704108976L215.3702794966285,24.040724652604755L208.61878353856568,-2.8955816458125874zM296.69621770990693,64.94600110368414L298.52072958157413,61.42771719446111L309.74403789000996,61.999665374433zM21.257391772409726,-12.443658208683667L21.257391772409726,27.51184514803007L85.08995729408483,-9.19070295968486z" style="fill:rgb(238,238,238); fill-opacity: 0.27"></path><path d="M21.25739177240972,-12.443658208683667L85.08995729408481,-9.19070295968486" style="fill:none;stroke:rgb(0,0,0);stroke-width:1;stroke-linecap:round"></path><path d="M254.2134720939254,39.38346111826306L260.9649680519882,26.364264059966665L260.9649680519882,-13.591239296747068z" style="fill:rgb(238,238,238); fill-opacity: 0.27"></path><path d="M119.49755664326106,-7.437265979773018L119.49755664326106,32.51823737694072M119.49755664326106,32.51823737694072L174.21118368177852,35.30648470512107" style="fill:none;stroke:rgb(0,0,0);stroke-width:1;stroke-linecap:round"></path><path d="M307.9195260183427,65.51794928365602L296.69621770990693,64.94600110368414L309.74403789000996,61.999665374433zM119.49755664326106,-7.437265979773018L174.21118368177852,-4.649018651592661L126.2490526013239,-20.45646303806941z" style="fill:rgb(238,238,238); fill-opacity: 0.27"></path><path d="M296.69621770990693,-31.55667322607728L296.69621770990693,64.94600110368414M296.69621770990693,64.94600110368414L307.9195260183427,65.51794928365602" style="fill:none;stroke:rgb(0,0,0);stroke-width:1;stroke-linecap:round"></path><path d="M309.74403789000996,61.999665374433L298.52072958157413,61.42771719446111L298.52072958157413,-35.0749571353003z" style="fill:rgb(238,238,238); fill-opacity: 0.27"></path><path d="M355.3749449558245,51.16559255030339L344.1516366473887,50.5936443703315M344.1516366473887,-19.590114051720118L344.1516366473887,50.5936443703315M344.1516366473887,50.5936443703315L342.3271247757215,54.11192827955454" style="fill:none;stroke:rgb(0,0,0);stroke-width:1;stroke-linecap:round"></path><path d="M174.21118368177852,-4.649018651592661L174.21118368177852,35.30648470512107L180.96267963984135,-17.66821570988905z" style="fill:rgb(238,238,238); fill-opacity: 0.27"></path><path d="M307.9195260183427,-30.98472504610539L307.9195260183427,65.51794928365602" style="fill:none;stroke:rgb(0,0,0);stroke-width:1;stroke-linecap:round"></path><path d="M215.3702794966285,24.040724652604755L208.61878353856568,37.05992171090114L208.61878353856568,-2.8955816458125874zM254.2134720939254,39.38346111826306L208.61878353856568,37.05992171090114L260.9649680519882,26.364264059966665zM254.2134720939254,-0.5720422384506785L260.9649680519882,-13.591239296747068L215.3702794966285,-15.914778704108976z" style="fill:rgb(238,238,238); fill-opacity: 0.27"></path><path d="M355.3749449558245,-19.018165871748234L355.3749449558245,51.16559255030339M355.3749449558245,51.16559255030339L353.5504330841573,54.683876459526424" style="fill:none;stroke:rgb(0,0,0);stroke-width:1;stroke-linecap:round"></path><path d="M342.32712477572153,54.111928279554526L344.1516366473888,50.5936443703315L355.37494495582456,51.16559255030339z" style="fill:rgb(238,238,238); fill-opacity: 0.27"></path><path d="M174.21118368177852,-4.64901865159266L174.21118368177852,35.30648470512107" style="fill:none;stroke:rgb(0,0,0);stroke-width:1;stroke-linecap:round"></path><path d="M307.9195260183427,65.51794928365602L309.74403789000996,61.999665374433L309.74403789000996,-34.50300895532842z" style="fill:rgb(238,238,238); fill-opacity: 0.27"></path><path d="M264.21286307259527,13.233656708691681L285.12728586543403,14.299471326163749" style="fill:none;stroke:rgb(0,0,0);stroke-width:1;stroke-linecap:round"></path><path d="M119.49755664326106,32.51823737694071L174.21118368177852,35.30648470512107L174.21118368177852,-4.649018651592661zM298.52072958157413,61.42771719446111L296.69621770990693,64.94600110368414L296.69621770990693,-31.556673226077276zM119.49755664326106,-7.437265979773018L119.49755664326106,32.51823737694071L174.21118368177852,-4.649018651592661zM353.55043308415736,54.683876459526424L342.32712477572153,54.111928279554526L355.37494495582456,51.16559255030339zM355.37494495582456,51.16559255030339L344.1516366473888,50.5936443703315L344.1516366473887,-19.590114051720118z" style="fill:rgb(238,238,238); fill-opacity: 0.27"></path><path d="M284.7361320294016,15.805892588688264L285.12728586543403,16.73345606910448L296.5964854615069,14.883950309938754zM285.36903222148794,11.864166495892853L284.8855395093802,12.796506074303506L296.5964854615069,14.883950309938754z" style="fill:rgb(0,0,0)"></path><path d="M119.49755664326106,-7.437265979773018L174.21118368177852,-4.64901865159266M208.61878353856568,-2.895581645812587L208.61878353856568,37.05992171090114M208.61878353856568,37.05992171090114L254.21347209392542,39.38346111826306" style="fill:none;stroke:rgb(0,0,0);stroke-width:1;stroke-linecap:round"></path><path d="M284.8855395093802,12.796506074303506L284.7361320294016,15.805892588688264L296.5964854615069,14.883950309938754z" style="fill:rgb(0,0,0)"></path><path d="M342.3271247757215,-16.07183014249708L342.3271247757215,54.11192827955454M342.3271247757215,54.11192827955454L353.5504330841573,54.683876459526424" style="fill:none;stroke:rgb(0,0,0);stroke-width:1;stroke-linecap:round"></path><path d="M309.74403789000996,-34.50300895532842L309.74403789000996,61.999665374433L298.52072958157413,-35.0749571353003zM296.69621770990693,64.94600110368414L307.9195260183427,65.51794928365602L307.9195260183427,-30.98472504610539z" style="fill:rgb(238,238,238); fill-opacity: 0.27"></path><path d="M309.84377013840987,15.559041838416965L330.75819293124863,16.62485645588903" style="fill:none;stroke:rgb(0,0,0);stroke-width:1;stroke-linecap:round"></path><path d="M208.61878353856568,-2.8955816458125874L254.2134720939254,-0.5720422384506785L215.3702794966285,-15.914778704108976z" style="fill:rgb(238,238,238); fill-opacity: 0.27"></path><path d="M353.5504330841573,-15.499881962525198L353.5504330841573,54.683876459526424" style="fill:none;stroke:rgb(0,0,0);stroke-width:1;stroke-linecap:round"></path><path d="M254.2134720939254,-0.5720422384506785L254.2134720939254,39.38346111826306L260.9649680519882,-13.591239296747068zM353.55043308415736,54.683876459526424L355.37494495582456,51.16559255030339L355.3749449558245,-19.018165871748234zM298.52072958157413,-35.0749571353003L298.52072958157413,61.42771719446111L296.69621770990693,-31.556673226077276zM344.1516366473888,50.5936443703315L342.32712477572153,54.111928279554526L342.3271247757215,-16.071830142497085z" style="fill:rgb(238,238,238); fill-opacity: 0.27"></path><path d="M330.36703909521617,18.13127771841355L330.75819293124863,19.058841198829768L342.22739252732146,17.209335439664038zM330.99993928730254,14.18955162561814L330.5164465751948,15.121891204028792L342.22739252732146,17.209335439664038z" style="fill:rgb(0,0,0)"></path><path d="M401.00585202163916,25.35151278986323L389.7825437132033,24.77956460989134M389.7825437132033,10.87473596817061L389.7825437132033,24.77956460989134M389.7825437132033,24.77956460989134L387.9580318415361,28.29784851911438" style="fill:none;stroke:rgb(0,0,0);stroke-width:1;stroke-linecap:round"></path><path d="M355.3749449558245,-19.018165871748234L355.37494495582456,51.16559255030339L344.1516366473887,-19.590114051720118z" style="fill:rgb(238,238,238); fill-opacity: 0.27"></path><path d="M254.21347209392542,-0.5720422384506778L254.21347209392542,39.38346111826306" style="fill:none;stroke:rgb(0,0,0);stroke-width:1;stroke-linecap:round"></path><path d="M330.5164465751948,15.121891204028792L330.36703909521617,18.13127771841355L342.22739252732146,17.209335439664038z" style="fill:rgb(0,0,0)"></path><path d="M401.00585202163916,11.446684148142491L401.00585202163916,25.35151278986323M401.00585202163916,25.35151278986323L399.1813401499719,28.869796699086262" style="fill:none;stroke:rgb(0,0,0);stroke-width:1;stroke-linecap:round"></path><path d="M401.0058520216391,25.35151278986323L389.78254371320327,24.77956460989134L389.78254371320327,10.87473596817061zM307.9195260183427,-30.98472504610539L307.9195260183427,65.51794928365602L309.74403789000996,-34.50300895532842z" style="fill:rgb(238,238,238); fill-opacity: 0.27"></path><path d="M355.4746772042245,17.88442696814225L376.3890999970633,18.950241585614318" style="fill:none;stroke:rgb(0,0,0);stroke-width:1;stroke-linecap:round"></path><path d="M208.61878353856568,37.05992171090114L254.2134720939254,39.38346111826306L254.2134720939254,-0.5720422384506785zM344.1516366473887,-19.590114051720118L344.1516366473888,50.5936443703315L342.3271247757215,-16.071830142497085zM342.32712477572153,54.111928279554526L353.55043308415736,54.683876459526424L353.5504330841573,-15.499881962525198zM387.9580318415361,28.297848519114375L389.78254371320327,24.77956460989134L401.0058520216391,25.35151278986323z" style="fill:rgb(238,238,238); fill-opacity: 0.27"></path><path d="M309.74403789000996,-34.50300895532842L298.52072958157413,-35.07495713530031M298.52072958157413,-35.07495713530031L296.69621770990693,-31.55667322607728" style="fill:none;stroke:rgb(0,0,0);stroke-width:1;stroke-linecap:round"></path><path d="M401.0058520216391,11.446684148142495L401.0058520216391,25.35151278986323L389.78254371320327,10.87473596817061zM208.61878353856568,-2.8955816458125874L208.61878353856568,37.05992171090114L254.2134720939254,-0.5720422384506785z" style="fill:rgb(238,238,238); fill-opacity: 0.27"></path><path d="M401.00585202163916,11.446684148142491L389.7825437132033,10.87473596817061M389.7825437132033,10.87473596817061L387.9580318415361,14.393019877393641" style="fill:none;stroke:rgb(0,0,0);stroke-width:1;stroke-linecap:round"></path><path d="M296.69621770990693,-31.556673226077276L296.69621770990693,64.94600110368414L307.9195260183427,-30.98472504610539z" style="fill:rgb(238,238,238); fill-opacity: 0.27"></path><path d="M309.74403789000996,-34.50300895532842L307.9195260183427,-30.98472504610539M401.00585202163916,11.446684148142491L399.1813401499719,14.964968057365528" style="fill:none;stroke:rgb(0,0,0);stroke-width:1;stroke-linecap:round"></path><path d="M389.78254371320327,10.87473596817061L389.78254371320327,24.77956460989134L387.9580318415361,14.393019877393643z" style="fill:rgb(238,238,238); fill-opacity: 0.27"></path><path d="M208.61878353856568,-2.895581645812587L254.21347209392542,-0.5720422384506778" style="fill:none;stroke:rgb(0,0,0);stroke-width:1;stroke-linecap:round"></path><path d="M375.9979461610308,20.456662848138834L376.3890999970633,21.38422632855505L387.8582995931361,19.53472056938932zM376.6308463531172,16.51493675534342L376.14735364100943,17.447276333754075L387.8582995931361,19.53472056938932z" style="fill:rgb(0,0,0)"></path><path d="M399.1813401499719,28.869796699086262L401.0058520216391,25.35151278986323L401.0058520216391,11.446684148142495z" style="fill:rgb(238,238,238); fill-opacity: 0.27"></path><path d="M355.3749449558245,-19.018165871748234L344.1516366473887,-19.590114051720118M344.1516366473887,-19.590114051720118L342.3271247757215,-16.07183014249708" style="fill:none;stroke:rgb(0,0,0);stroke-width:1;stroke-linecap:round"></path><path d="M376.14735364100943,17.447276333754075L375.9979461610308,20.456662848138834L387.8582995931361,19.53472056938932z" style="fill:rgb(0,0,0)"></path><path d="M353.5504330841573,-15.499881962525198L353.55043308415736,54.683876459526424L355.3749449558245,-19.018165871748234zM399.1813401499719,28.869796699086262L387.9580318415361,28.297848519114375L401.0058520216391,25.35151278986323z" style="fill:rgb(238,238,238); fill-opacity: 0.27"></path><path d="M355.3749449558245,-19.018165871748234L353.5504330841573,-15.499881962525198" style="fill:none;stroke:rgb(0,0,0);stroke-width:1;stroke-linecap:round"></path><path d="M389.78254371320327,24.77956460989134L387.9580318415361,28.297848519114375L387.9580318415361,14.393019877393643zM307.9195260183427,-30.98472504610539L309.74403789000996,-34.50300895532842L298.52072958157413,-35.0749571353003zM399.1813401499719,14.964968057365528L401.0058520216391,11.446684148142495L389.78254371320327,10.87473596817061zM342.3271247757215,-16.071830142497085L342.32712477572153,54.111928279554526L353.5504330841573,-15.499881962525198z" style="fill:rgb(238,238,238); fill-opacity: 0.27"></path><path d="M387.9580318415361,14.393019877393641L387.9580318415361,28.29784851911438M387.9580318415361,28.29784851911438L399.1813401499719,28.869796699086262" style="fill:none;stroke:rgb(0,0,0);stroke-width:1;stroke-linecap:round"></path><path d="M353.5504330841573,-15.499881962525198L355.3749449558245,-19.018165871748234L344.1516366473887,-19.590114051720118zM296.69621770990693,-31.556673226077276L307.9195260183427,-30.98472504610539L298.52072958157413,-35.0749571353003zM399.1813401499719,14.964968057365528L399.1813401499719,28.869796699086262L401.0058520216391,11.446684148142495zM387.9580318415361,14.393019877393643L399.1813401499719,14.964968057365528L389.78254371320327,10.87473596817061z" style="fill:rgb(238,238,238); fill-opacity: 0.27"></path><path d="M399.1813401499719,14.964968057365528L399.1813401499719,28.869796699086262" style="fill:none;stroke:rgb(0,0,0);stroke-width:1;stroke-linecap:round"></path><path d="M387.9580318415361,28.297848519114375L399.1813401499719,28.869796699086262L399.1813401499719,14.964968057365528zM387.9580318415361,14.393019877393643L387.9580318415361,28.297848519114375L399.1813401499719,14.964968057365528zM342.3271247757215,-16.071830142497085L353.5504330841573,-15.499881962525198L344.1516366473887,-19.590114051720118z" style="fill:rgb(238,238,238); fill-opacity: 0.27"></path><path d="M296.69621770990693,-31.55667322607728L307.9195260183427,-30.98472504610539M387.9580318415361,14.393019877393641L399.1813401499719,14.964968057365528M342.3271247757215,-16.07183014249708L353.5504330841573,-15.499881962525198" style="fill:none;stroke:rgb(0,0,0);stroke-width:1;stroke-linecap:round"></path></svg>